<svg width="54" height="35" viewBox="0 0 54 35" fill="none" xmlns="http://www.w3.org/2000/svg">
<path d="M0.736 34L22.288 0.399998H31.648L39.76 34H30.304L24.304 4.912H28.048L10.768 34H0.736ZM10.144 27.472L13.984 20.464H30.4L31.456 27.472H10.144ZM48.0824 34.432C46.5464 34.432 45.2984 33.968 44.3384 33.04C43.3784 32.08 42.8984 30.88 42.8984 29.44C42.8984 27.68 43.4744 26.272 44.6264 25.216C45.7784 24.16 47.1544 23.632 48.7544 23.632C50.2904 23.632 51.5224 24.096 52.4504 25.024C53.4104 25.952 53.8904 27.152 53.8904 28.624C53.8904 29.776 53.6184 30.784 53.0744 31.648C52.5624 32.512 51.8584 33.2 50.9624 33.712C50.0984 34.192 49.1384 34.432 48.0824 34.432Z" fill="#FADB3F"/>
</svg>
